<svg xmlns="http://www.w3.org/2000/svg" viewBox="0 0 640 400" fill="none">
  <!-- About / トップ用：ノードと控えめな接続線、曲線 -->
  <g stroke="#fff" stroke-width="1" stroke-opacity="0.22">
    <path d="M120 360 C 260 300, 330 140, 620 110"/>
    <path d="M200 400 C 330 330, 420 220, 640 210" stroke-opacity="0.12"/>
    <path d="M300 96 L412 150 L520 70 L600 166 L470 250 L412 150"/>
    <path d="M470 250 L560 318 L600 166"/>
    <path d="M300 96 L352 232 L470 250"/>
  </g>
  <g fill="#fff">
    <circle cx="300" cy="96" r="3.5" fill-opacity="0.55"/>
    <circle cx="412" cy="150" r="5" fill-opacity="0.7"/>
    <circle cx="520" cy="70" r="3.5" fill-opacity="0.5"/>
    <circle cx="600" cy="166" r="4" fill-opacity="0.55"/>
    <circle cx="470" cy="250" r="4.5" fill-opacity="0.6"/>
    <circle cx="560" cy="318" r="3" fill-opacity="0.45"/>
    <circle cx="352" cy="232" r="3" fill-opacity="0.4"/>
  </g>
  <circle cx="412" cy="150" r="14" stroke="#fff" stroke-opacity="0.18"/>
</svg>
