<svg xmlns="http://www.w3.org/2000/svg" width="98" height="24"><g fill="none"><path fill="#41C9B4" d="M3.044 20.964h15.189V3.033H7.266a.452.452 0 0 0-.27.133 415.415 415.415 0 0 0-3.838 4.185.57.57 0 0 0-.112.341l-.002 13.272zM19.752 0c.84 0 1.519.68 1.519 1.52v20.963c0 .84-.68 1.519-1.52 1.519H1.526c-.84 0-1.52-.68-1.52-1.519C.005 22.318.004 7.717 0 7.14a2.097 2.097 0 0 1 .594-1.52L5.17.632A1.82 1.82 0 0 1 6.603 0h13.149zM6.081 10.569a1.215 1.215 0 0 1 0-2.429h2.068V6.07a1.216 1.216 0 0 1 2.43 0v3.284c0 .67-.545 1.215-1.215 1.215H6.081z"/><path fill="#000" d="M30.652 6.682h3.56c.1 0 .245.086.245.244v.763c0 .43.437.502.586.33.909-1.046 2.265-1.604 3.597-1.604 3.064 0 4.849 2.025 4.849 5.302v9c0 .068-.06.246-.245.246h-3.56c-.098 0-.245-.084-.245-.245v-7.722c0-1.918-.905-2.904-2.45-2.904-1.546 0-2.532.986-2.532 2.904v7.722c0 .098-.078.245-.244.245h-3.561c-.097 0-.244-.086-.244-.245V6.927a.24.24 0 0 1 .244-.244m29.49 7.22v-.053c0-2.106-1.52-3.944-3.757-3.944-2.318 0-3.704 1.786-3.704 3.89v.054c0 2.104 1.519 3.943 3.756 3.943 2.32 0 3.705-1.785 3.705-3.89m-11.457 0v-.053c0-4.104 3.304-7.434 7.752-7.434 4.424 0 7.7 3.277 7.7 7.38v.054c0 4.103-3.303 7.433-7.752 7.433-4.423 0-7.7-3.277-7.7-7.38m21.86 3.01v-6.29a.461.461 0 0 0-.48-.477h-.984s-.242-.001-.242-.247V6.922c0-.116.022-.24.245-.24h.977c.239 0 .483-.16.483-.478V3.277c0-.157.048-.244.235-.244h3.564c.097 0 .252.054.252.26v2.91c0 .285.124.48.472.48h2.64c.129 0 .245.039.245.245V9.9c0 .135-.014.247-.246.247h-2.633c-.285 0-.478.172-.478.476v5.626c0 .932.484 1.449 1.305 1.385.774-.06 1.11-.096 1.664-.36 0 0 .335-.066.335.27v2.581a.414.414 0 0 1-.227.38c-.83.427-1.694.7-2.97.7-2.479 0-4.158-.987-4.158-4.29m22.503-4.682c-.345-1.392-1.22-2.566-2.926-2.566-2.158 0-2.842 1.99-2.978 2.53-.05.198.078.507.388.507h5.103c.457 0 .413-.47.413-.47m-9.987 1.67v-.054c0-4.077 2.905-7.434 7.061-7.434 4.769 0 6.954 3.703 6.954 7.754 0 .199-.01.42-.024.647-.01.138-.106.418-.449.418h-8.986c-.388 0-.434.393-.369.574.524 1.464 1.714 2.224 3.327 2.224 1.25 0 2.155-.355 3.198-1.229a.394.394 0 0 1 .552.017l1.75 1.548c.207.184.165.401.036.538-1.341 1.444-3.09 2.376-5.59 2.376-4.289 0-7.46-3.01-7.46-7.38"/></g></svg>